<svg width="195" height="32" viewBox="0 0 195 32" fill="none" xmlns="http://www.w3.org/2000/svg">
<path d="M56.891 24H63.17L56.408 14.984L62.848 7.9H56.937L51.647 13.742V7.9H46.311V24H51.647V20.021L52.866 18.664L56.891 24ZM75.3749 24H81.1709L77.7899 19.032C79.7219 18.043 80.8259 16.295 80.8259 13.972C80.8259 10.246 77.9739 7.9 73.4889 7.9H65.7379V24H71.1659V19.952H72.6379L75.3749 24ZM75.3519 13.972C75.3519 15.145 74.6389 15.858 73.1439 15.858H71.1659V12.086H73.1439C74.6389 12.086 75.3519 12.799 75.3519 13.972ZM90.0516 19.906V17.79H96.8596V13.88H90.0516V11.994H97.8026V7.9H84.7156V24H98.1016V19.906H90.0516ZM110.472 24.368C115.716 24.368 119.557 20.826 119.557 15.95C119.557 11.074 115.716 7.532 110.472 7.532C105.228 7.532 101.387 11.074 101.387 15.95C101.387 20.826 105.228 24.368 110.472 24.368ZM110.472 19.975C108.471 19.975 106.861 18.457 106.861 15.95C106.861 13.443 108.471 11.925 110.472 11.925C112.473 11.925 114.083 13.443 114.083 15.95C114.083 18.457 112.473 19.975 110.472 19.975ZM139.854 7.9H132.103V24H137.531V20.044H139.854C144.339 20.044 147.191 17.698 147.191 13.972C147.191 10.246 144.339 7.9 139.854 7.9ZM139.509 15.858H137.531V12.086H139.509C141.004 12.086 141.717 12.799 141.717 13.972C141.717 15.145 141.004 15.858 139.509 15.858ZM160.448 24H166.244L162.863 19.032C164.795 18.043 165.899 16.295 165.899 13.972C165.899 10.246 163.047 7.9 158.562 7.9H150.811V24H156.239V19.952H157.711L160.448 24ZM160.425 13.972C160.425 15.145 159.712 15.858 158.217 15.858H156.239V12.086H158.217C159.712 12.086 160.425 12.799 160.425 13.972ZM178.23 24.368C183.474 24.368 187.315 20.826 187.315 15.95C187.315 11.074 183.474 7.532 178.23 7.532C172.986 7.532 169.145 11.074 169.145 15.95C169.145 20.826 172.986 24.368 178.23 24.368ZM178.23 19.975C176.229 19.975 174.619 18.457 174.619 15.95C174.619 13.443 176.229 11.925 178.23 11.925C180.231 11.925 181.841 13.443 181.841 15.95C181.841 18.457 180.231 19.975 178.23 19.975Z" fill="#EAEAEA"/>
<circle cx="16" cy="16" r="12" stroke="url(#paint0_linear_713_14896)" stroke-width="8"/>
<defs>
<linearGradient id="paint0_linear_713_14896" x1="0.630052" y1="32.021" x2="35.885" y2="26.4555" gradientUnits="userSpaceOnUse">
<stop stop-color="#5E0BC8"/>
<stop offset="1" stop-color="#00FFFF"/>
</linearGradient>
</defs>
</svg>
